<?xml version="1.0" standalone="no"?>
<!DOCTYPE svg PUBLIC "-//W3C//DTD SVG 20010904//EN"
 "http://www.w3.org/TR/2001/REC-SVG-20010904/DTD/svg10.dtd">
<svg version="1.0" xmlns="http://www.w3.org/2000/svg"
 width="1200.000000pt" height="1200.000000pt" viewBox="0 0 1200.000000 1200.000000"
 preserveAspectRatio="xMidYMid meet">

<g transform="translate(0.000000,1200.000000) scale(0.100000,-0.100000)"
fill="#000000" stroke="none">
<path d="M5640 11989 c-1873 -118 -3563 -1083 -4613 -2634 -1107 -1636 -1334
-3727 -602 -5570 302 -760 751 -1442 1334 -2026 1950 -1949 4962 -2319 7331
-901 829 496 1556 1223 2052 2052 902 1506 1102 3315 552 4978 -482 1457
-1508 2675 -2869 3404 -964 517 -2101 766 -3185 697z m-2398 -3219 c44 -13 93
-52 113 -91 22 -42 22 -2276 0 -2318 -20 -39 -69 -78 -113 -91 -53 -14 -2203
-14 -2257 1 -51 14 -112 77 -121 123 -3 19 -1 84 6 143 89 805 551 1508 1258
1915 291 168 642 280 989 317 43 5 80 9 83 10 3 0 22 -4 42 -9z m895 -39 c806
-141 1482 -647 1838 -1376 136 -278 210 -539 245 -852 10 -94 9 -107 -8 -146
-23 -51 -71 -94 -115 -102 -18 -3 -536 -4 -1153 -3 l-1121 3 -36 28 c-72 55
-67 -37 -67 1222 0 1225 -3 1161 52 1212 12 12 34 27 48 32 33 14 180 6 317
-18z m-844 -2831 c20 -13 45 -41 57 -61 20 -37 20 -41 18 -1177 -3 -1140 -3
-1141 -24 -1169 -11 -15 -36 -39 -55 -52 -32 -22 -40 -23 -139 -18 -424 23
-915 211 -1291 494 -569 429 -927 1073 -995 1789 -7 84 4 129 44 167 62 60 -7
57 1223 54 l1125 -2 37 -25z m2074 -101 c79 -38 118 -151 78 -228 -35 -70
-123 -110 -195 -91 -103 28 -162 149 -116 238 48 91 143 124 233 81z m1461
-696 l-3 -408 -42 -3 -43 -3 0 410 0 411 45 0 45 0 -2 -407z m276 390 c3 -10
42 -155 86 -323 45 -168 83 -307 85 -308 2 -2 8 11 13 30 5 18 44 165 88 325
l79 293 48 0 47 0 0 -410 0 -410 -35 0 -35 0 -1 323 c0 200 -4 314 -9 302 -5
-11 -41 -146 -80 -300 -39 -154 -75 -290 -80 -303 -8 -18 -17 -23 -38 -20 -27
3 -27 5 -107 315 l-80 312 -5 -312 -5 -312 -37 -3 -38 -3 0 410 0 411 49 0
c39 0 51 -4 55 -17z m740 -35 c8 -29 47 -174 86 -323 39 -148 73 -271 75 -273
2 -2 8 11 13 30 5 18 44 165 88 325 l79 293 48 0 47 0 0 -410 0 -410 -35 0
-35 0 -1 323 c0 199 -4 314 -9 302 -5 -11 -41 -146 -80 -300 -39 -154 -75
-290 -80 -303 -8 -18 -17 -23 -37 -20 -28 3 -28 5 -108 315 l-80 313 -5 -313
-5 -312 -37 -3 -38 -3 0 410 0 411 49 0 50 0 15 -52z m925 -336 c46 -213 86
-397 89 -409 4 -21 1 -23 -41 -23 -51 0 -51 0 -79 133 l-12 57 -101 0 -102 0
-12 -57 c-30 -137 -28 -133 -71 -133 -21 0 -41 3 -43 8 -2 4 31 165 74 357 43
193 83 374 89 403 l11 52 57 0 57 0 84 -388z m451 378 c75 -21 120 -99 120
-207 l0 -53 -45 0 -45 0 0 54 c0 102 -35 146 -115 146 -72 0 -105 -42 -105
-135 0 -91 15 -108 145 -170 77 -37 120 -64 135 -85 45 -63 44 -219 -2 -286
-37 -55 -94 -77 -186 -73 -62 3 -84 9 -111 28 -43 31 -69 90 -77 179 l-7 72
47 0 46 0 0 -46 c0 -114 38 -174 112 -174 90 0 122 45 116 165 -4 92 -9 97
-144 164 -105 51 -135 78 -155 138 -16 51 -7 173 17 214 38 67 152 97 254 69z
m-4143 -48 c10 -6 6 -44 -17 -166 -17 -87 -30 -163 -30 -168 0 -5 33 55 73
134 82 163 107 188 187 188 55 0 104 -28 132 -76 12 -20 31 -119 57 -285 l39
-254 17 -564 c17 -558 17 -563 -2 -590 -34 -45 -112 -41 -137 7 -10 20 -16
119 -25 397 -6 204 -11 404 -12 445 0 55 -3 68 -9 50 -5 -14 -41 -218 -82
-455 -81 -477 -80 -475 -153 -475 -42 0 -85 37 -85 72 1 13 40 252 89 532 l87
508 -13 81 c-7 44 -14 85 -16 90 -1 5 -22 -17 -46 -49 -71 -96 -112 -134 -143
-134 -20 0 -29 -6 -33 -22 -2 -13 -30 -161 -61 -330 l-56 -307 21 -27 c12 -16
21 -42 21 -63 1 -29 7 -40 33 -56 27 -17 32 -27 35 -64 3 -46 -34 -137 -79
-195 l-20 -26 -212 1 c-119 0 -201 4 -187 8 14 5 51 16 83 25 31 9 69 27 84
40 l27 23 -13 81 c-15 93 -8 116 45 138 24 10 34 21 34 37 1 28 20 53 56 72
29 15 29 15 91 347 51 277 59 338 51 364 -10 27 -7 43 20 110 22 56 44 147 72
309 23 127 43 236 45 243 5 14 15 15 32 4z m1038 -74 c-3 -35 -16 -295 -30
-578 -14 -283 -26 -536 -28 -562 -4 -45 -2 -48 19 -48 29 0 30 -4 9 -290 -8
-113 -15 -215 -15 -227 l0 -23 -190 0 -189 0 -5 33 c-3 17 -10 113 -16 212 -5
99 -13 206 -16 238 l-6 57 181 0 c100 0 181 3 181 8 0 4 14 266 30 582 16 316
30 594 30 618 0 38 2 42 25 42 25 0 25 -1 20 -62z m-2299 -643 c7 -18 -13 -45
-33 -45 -17 0 -27 24 -19 45 7 20 45 19 52 0z m104 -85 c28 -28 32 -54 28
-195 -3 -119 -4 -128 -26 -146 -24 -18 -20 -19 310 -21 l333 -3 3 -60 c7 -121
-48 -239 -132 -282 -17 -9 -72 -20 -122 -24 -98 -8 -154 -27 -192 -61 -27 -26
-52 -105 -52 -165 l0 -43 -192 2 -193 3 -3 508 -2 507 110 0 c96 0 112 -2 130
-20z m648 -257 c3 -10 -55 -13 -268 -13 -242 0 -271 2 -260 15 11 13 50 15
268 13 193 -2 256 -6 260 -15z m-3 -63 l0 -25 -261 -3 c-226 -2 -263 0 -268
13 -3 8 -3 22 0 30 5 13 42 15 268 13 l261 -3 0 -25z m2495 -79 c57 -29 73
-68 78 -193 l5 -108 -46 0 -45 0 -4 110 c-3 98 -5 112 -26 132 -19 20 -33 23
-92 23 -115 0 -119 -11 -119 -360 0 -251 6 -316 33 -343 10 -10 39 -18 79 -20
57 -4 67 -1 93 21 28 24 29 29 32 127 l4 101 41 -3 42 -3 -1 -92 c-3 -162 -48
-207 -204 -207 -98 0 -139 17 -177 72 -29 44 -36 127 -31 417 4 261 8 283 64
320 57 37 205 40 274 6z m3359 1 c60 -29 75 -60 79 -167 l4 -95 -39 0 -40 0
-6 81 c-10 122 -41 155 -140 146 -60 -5 -86 -29 -98 -88 -10 -55 -10 -488 0
-552 10 -62 28 -79 90 -85 110 -10 142 30 149 186 l5 102 -57 0 c-56 0 -56 0
-56 30 l0 30 95 0 95 0 0 -195 0 -195 -35 0 c-33 0 -35 2 -35 35 l0 36 -30
-35 c-23 -25 -44 -37 -80 -45 -63 -14 -145 1 -178 32 -49 45 -52 65 -52 384 0
326 3 343 61 385 52 39 198 44 268 10z m-3047 -359 l3 -378 113 -3 112 -3 0
-29 0 -30 -155 0 -155 0 0 410 0 410 40 0 40 0 2 -377z m676 340 l3 -33 -130
0 -131 0 0 -145 0 -145 105 0 105 0 0 -35 0 -35 -105 0 -105 0 0 -165 0 -165
130 0 130 0 0 -30 0 -30 -175 0 -175 0 0 410 0 410 173 -2 172 -3 3 -32z m434
-363 c48 -217 87 -401 87 -408 1 -9 -12 -12 -46 -10 l-46 3 -21 90 -21 90
-100 3 -100 3 -20 -93 -20 -93 -47 -3 -46 -3 8 38 c5 21 45 201 89 401 44 199
83 367 86 373 4 5 30 9 58 7 l52 -3 87 -395z m400 80 l127 -315 3 315 3 315
35 0 35 0 3 -408 2 -408 -41 3 -41 3 -124 300 -123 300 -1 -302 0 -303 -40 0
-40 0 0 411 0 410 38 -3 37 -3 127 -315z m466 -92 l2 -408 -45 0 -45 0 0 403
c0 222 3 407 7 411 4 4 23 6 43 4 l35 -3 3 -407z m374 92 l127 -315 3 315 3
315 35 0 35 0 3 -408 2 -408 -41 3 -41 3 -121 296 -122 297 -3 -299 -2 -299
-40 0 -40 0 0 403 c0 222 3 407 7 411 4 4 21 6 38 4 30 -3 31 -7 157 -318z"/>
<path d="M8576 5168 c-25 -123 -46 -226 -46 -230 0 -5 43 -8 95 -8 52 0 95 3
95 8 0 12 -90 446 -94 449 -1 2 -24 -97 -50 -219z"/>
<path d="M3806 3840 c-31 -37 -49 -94 -44 -135 5 -34 13 -21 22 36 9 54 46
103 80 107 50 6 79 -34 101 -142 4 -19 10 -25 16 -19 6 6 6 28 -2 62 -24 112
-115 159 -173 91z"/>
<path d="M8290 3937 c-24 -117 -46 -220 -48 -229 -4 -16 5 -18 92 -18 53 0 96
1 96 3 0 9 -90 451 -93 453 -1 2 -22 -93 -47 -209z"/>
</g>
</svg>
